<svg width="457" height="653" viewBox="0 0 457 653" fill="none" xmlns="http://www.w3.org/2000/svg">
<g clip-path="url(#clip0_53_499)">
<rect width="457" height="212" rx="21.2144" fill="#131D27"/>
<g clip-path="url(#clip1_53_499)">
<rect x="-113.582" y="5.30371" width="132.59" height="201.393" rx="5.30359" fill="#FCFCFC"/>
<path d="M-106.352 10.6211L-70.1093 10.6211L-26.7743 92.733H-25.0444L18.2906 10.6211L54.5329 10.6211L-9.90741 126.992V196.234H-41.9113V126.992L-106.352 10.6211Z" fill="#F3F36E"/>
</g>
<rect x="24.3125" y="5.30371" width="132.59" height="201.393" rx="5.30359" fill="#FCFCFC"/>
<rect x="34.918" y="42.4287" width="64.969" height="10.6072" fill="#131D27"/>
<rect x="34.918" y="55.6875" width="84.8575" height="10.6072" fill="#131D27"/>
<rect x="34.918" y="68.9463" width="53.0359" height="10.6072" fill="#131D27"/>
<rect x="34.918" y="161.76" width="42.4288" height="10.6072" fill="#131D27"/>
<rect x="34.918" y="175.019" width="34.4734" height="10.6072" fill="#131D27"/>
<g clip-path="url(#clip2_53_499)">
<rect x="162.203" y="5.30371" width="132.59" height="201.393" rx="5.30359" fill="#FCFCFC"/>
<path d="M162.203 218.621L294.793 218.621C294.793 182.033 265.112 152.373 228.498 152.373C191.884 152.373 162.203 182.033 162.203 218.621Z" fill="#F3F36E"/>
<path d="M162.203 165.623L294.793 165.623C294.793 129.035 265.112 99.375 228.498 99.375C191.884 99.375 162.203 129.035 162.203 165.623Z" fill="#F3F36E"/>
<path d="M162.203 111.299L294.793 111.299C294.793 74.7118 265.112 45.0518 228.498 45.0518C191.884 45.0518 162.203 74.7118 162.203 111.299Z" fill="#F3F36E"/>
<path d="M162.203 58.3013L294.793 58.3013C294.793 21.7138 265.112 -7.94629 228.498 -7.94628C191.884 -7.94628 162.203 21.7138 162.203 58.3013Z" fill="#F3F36E"/>
<rect x="228.496" y="174.897" width="42.4288" height="10.5996" fill="#131D27"/>
<rect x="172.809" y="174.897" width="22.5403" height="10.5996" fill="#131D27"/>
</g>
<g clip-path="url(#clip3_53_499)">
<rect x="300.098" y="5.30371" width="132.59" height="201.393" rx="5.30359" fill="#FCFCFC"/>
<path d="M431.365 190.797V-39.7449M387.221 182.022L475.509 -30.9709M475.509 182.022L387.221 -30.9709M537.937 119.638L324.792 31.4136M537.937 31.4138L324.792 119.638M546.718 75.526L316.012 75.526M512.932 157.035L349.798 -5.98288M512.932 -5.98277L349.798 157.035" stroke="#F3F36E" stroke-width="13.259"/>
<rect x="310.707" y="15.9033" width="42.4288" height="10.5996" fill="#131D27"/>
<rect x="310.707" y="29.1523" width="31.8216" height="10.5996" fill="#131D27"/>
<rect x="310.707" y="42.4023" width="49.0582" height="10.5996" fill="#131D27"/>
</g>
<g clip-path="url(#clip4_53_499)">
<rect x="437.992" y="5.30371" width="132.59" height="201.393" rx="5.30359" fill="#FCFCFC"/>
<ellipse cx="115.353" cy="115.271" rx="115.353" ry="115.271" transform="matrix(1 0 0 -1 334.574 336.542)" fill="#F3F36E"/>
</g>
</g>
<rect x="2.6518" y="2.6518" width="451.696" height="206.696" rx="18.5626" stroke="#131D27" stroke-width="5.30359"/>
<rect x="2.6518" y="222.936" width="451.696" height="206.696" rx="18.5626" fill="#FCFCFC"/>
<path d="M59.1192 408.844H21.2148L78.97 241.499H124.553L182.227 408.844H144.322L102.415 279.74H101.108L59.1192 408.844ZM56.7502 343.067H146.283V370.685H56.7502V343.067Z" fill="#131D27"/>
<path d="M223.688 411.214C215.682 411.214 208.548 409.825 202.285 407.047C196.022 404.214 191.066 400.047 187.417 394.545C183.823 388.988 182.026 382.07 182.026 373.79C182.026 366.817 183.305 360.961 185.865 356.222C188.425 351.483 191.91 347.67 196.321 344.783C200.733 341.895 205.743 339.716 211.352 338.246C217.016 336.775 222.953 335.74 229.161 335.141C236.459 334.378 242.34 333.67 246.806 333.016C251.272 332.308 254.512 331.273 256.527 329.911C258.542 328.549 259.55 326.534 259.55 323.864V323.374C259.55 318.199 257.916 314.195 254.648 311.362C251.435 308.53 246.861 307.113 240.924 307.113C234.661 307.113 229.678 308.503 225.975 311.281C222.272 314.004 219.821 317.436 218.623 321.576L186.437 318.962C188.071 311.335 191.284 304.744 196.076 299.187C200.869 293.577 207.05 289.273 214.62 286.277C222.245 283.226 231.067 281.701 241.088 281.701C248.059 281.701 254.73 282.518 261.102 284.152C267.528 285.787 273.219 288.32 278.175 291.752C283.186 295.184 287.134 299.596 290.02 304.989C292.907 310.327 294.35 316.728 294.35 324.191V408.844H261.347V391.44H260.367C258.352 395.362 255.656 398.821 252.279 401.817C248.903 404.759 244.846 407.074 240.108 408.763C235.369 410.397 229.896 411.214 223.688 411.214ZM233.654 387.191C238.773 387.191 243.293 386.183 247.215 384.167C251.136 382.097 254.213 379.319 256.446 375.833C258.678 372.347 259.795 368.397 259.795 363.985V350.666C258.706 351.374 257.208 352.028 255.302 352.627C253.45 353.172 251.354 353.689 249.012 354.179C246.67 354.615 244.328 355.024 241.986 355.405C239.645 355.732 237.521 356.031 235.615 356.304C231.53 356.903 227.963 357.856 224.913 359.164C221.863 360.471 219.494 362.242 217.806 364.475C216.118 366.654 215.274 369.378 215.274 372.646C215.274 377.385 216.989 381.008 220.42 383.514C223.906 385.965 228.317 387.191 233.654 387.191Z" fill="#131D27"/>
<rect x="245.785" y="241.499" width="189.822" height="65.518" rx="10.6072" fill="#F3F36E"/>
<path d="M273.165 262.615V285.758H268.973V266.694H268.837L263.424 270.152V266.31L269.176 262.615H273.165ZM285.686 286.199C283.825 286.199 282.228 285.728 280.895 284.786C279.569 283.837 278.548 282.469 277.833 280.684C277.124 278.891 276.77 276.733 276.77 274.209C276.778 271.685 277.136 269.538 277.844 267.768C278.56 265.99 279.58 264.634 280.906 263.7C282.24 262.766 283.833 262.298 285.686 262.298C287.539 262.298 289.133 262.766 290.466 263.7C291.8 264.634 292.82 265.99 293.529 267.768C294.244 269.546 294.602 271.693 294.602 274.209C294.602 276.74 294.244 278.902 293.529 280.695C292.82 282.481 291.8 283.844 290.466 284.786C289.14 285.728 287.547 286.199 285.686 286.199ZM285.686 282.662C287.133 282.662 288.274 281.95 289.11 280.526C289.954 279.094 290.376 276.989 290.376 274.209C290.376 272.371 290.184 270.826 289.8 269.576C289.415 268.325 288.873 267.384 288.172 266.751C287.472 266.11 286.643 265.79 285.686 265.79C284.247 265.79 283.11 266.506 282.274 267.937C281.437 269.361 281.015 271.452 281.008 274.209C281 276.055 281.185 277.607 281.562 278.865C281.946 280.123 282.488 281.072 283.189 281.712C283.889 282.345 284.722 282.662 285.686 282.662ZM304.674 286.074C302.994 286.074 301.502 285.792 300.199 285.227C298.903 284.662 297.886 283.89 297.148 282.91C296.417 281.923 296.056 280.805 296.063 279.554C296.056 278.582 296.267 277.689 296.696 276.876C297.125 276.062 297.705 275.384 298.436 274.842C299.175 274.292 299.996 273.941 300.9 273.791V273.633C299.709 273.369 298.745 272.763 298.007 271.813C297.276 270.857 296.914 269.753 296.922 268.502C296.914 267.312 297.246 266.25 297.916 265.316C298.587 264.381 299.506 263.647 300.674 263.112C301.841 262.57 303.175 262.298 304.674 262.298C306.158 262.298 307.48 262.57 308.64 263.112C309.808 263.647 310.727 264.381 311.398 265.316C312.076 266.25 312.415 267.312 312.415 268.502C312.415 269.753 312.042 270.857 311.296 271.813C310.558 272.763 309.605 273.369 308.437 273.633V273.791C309.341 273.941 310.155 274.292 310.878 274.842C311.609 275.384 312.189 276.062 312.618 276.876C313.055 277.689 313.273 278.582 313.273 279.554C313.273 280.805 312.904 281.923 312.166 282.91C311.428 283.89 310.411 284.662 309.115 285.227C307.827 285.792 306.346 286.074 304.674 286.074ZM304.674 282.842C305.54 282.842 306.294 282.695 306.934 282.402C307.574 282.1 308.072 281.678 308.426 281.136C308.78 280.594 308.961 279.968 308.968 279.26C308.961 278.522 308.768 277.87 308.392 277.305C308.023 276.733 307.514 276.284 306.866 275.96C306.226 275.637 305.495 275.475 304.674 275.475C303.845 275.475 303.107 275.637 302.459 275.96C301.811 276.284 301.299 276.733 300.922 277.305C300.553 277.87 300.372 278.522 300.38 279.26C300.372 279.968 300.546 280.594 300.9 281.136C301.254 281.671 301.751 282.089 302.391 282.39C303.039 282.692 303.8 282.842 304.674 282.842ZM304.674 272.299C305.382 272.299 306.007 272.156 306.55 271.87C307.1 271.584 307.533 271.184 307.849 270.672C308.166 270.16 308.328 269.568 308.335 268.898C308.328 268.235 308.17 267.655 307.861 267.158C307.552 266.653 307.122 266.265 306.572 265.994C306.022 265.715 305.39 265.576 304.674 265.576C303.943 265.576 303.299 265.715 302.742 265.994C302.192 266.265 301.762 266.653 301.453 267.158C301.152 267.655 301.005 268.235 301.013 268.898C301.005 269.568 301.156 270.16 301.465 270.672C301.781 271.177 302.214 271.576 302.764 271.87C303.322 272.156 303.958 272.299 304.674 272.299ZM323.633 286.199C321.773 286.199 320.176 285.728 318.842 284.786C317.516 283.837 316.495 282.469 315.78 280.684C315.072 278.891 314.718 276.733 314.718 274.209C314.725 271.685 315.083 269.538 315.791 267.768C316.507 265.99 317.528 264.634 318.853 263.7C320.187 262.766 321.78 262.298 323.633 262.298C325.487 262.298 327.08 262.766 328.413 263.7C329.747 264.634 330.768 265.99 331.476 267.768C332.192 269.546 332.549 271.693 332.549 274.209C332.549 276.74 332.192 278.902 331.476 280.695C330.768 282.481 329.747 283.844 328.413 284.786C327.088 285.728 325.494 286.199 323.633 286.199ZM323.633 282.662C325.08 282.662 326.221 281.95 327.057 280.526C327.901 279.094 328.323 276.989 328.323 274.209C328.323 272.371 328.131 270.826 327.747 269.576C327.363 268.325 326.82 267.384 326.12 266.751C325.419 266.11 324.59 265.79 323.633 265.79C322.195 265.79 321.057 266.506 320.221 267.937C319.385 269.361 318.963 271.452 318.955 274.209C318.948 276.055 319.132 277.607 319.509 278.865C319.893 280.123 320.435 281.072 321.136 281.712C321.837 282.345 322.669 282.662 323.633 282.662ZM337.785 268.401L341.288 274.808L344.847 268.401H349.175L343.943 277.079L349.266 285.758H344.96L341.288 279.509L337.649 285.758H333.31L338.598 277.079L333.445 268.401H337.785ZM359.798 262.615V285.758H355.606V266.694H355.47L350.057 270.152V266.31L355.809 262.615H359.798ZM371.799 262.298C372.907 262.306 373.984 262.502 375.031 262.886C376.086 263.263 377.035 263.88 377.879 264.739C378.723 265.591 379.393 266.732 379.89 268.163C380.388 269.595 380.636 271.365 380.636 273.474C380.644 275.463 380.433 277.241 380.003 278.808C379.582 280.368 378.975 281.686 378.184 282.763C377.393 283.841 376.44 284.662 375.325 285.227C374.21 285.792 372.956 286.074 371.562 286.074C370.101 286.074 368.805 285.788 367.675 285.215C366.552 284.643 365.645 283.859 364.951 282.865C364.258 281.871 363.833 280.733 363.674 279.452H367.799C368.01 280.371 368.439 281.102 369.087 281.645C369.743 282.179 370.568 282.447 371.562 282.447C373.167 282.447 374.402 281.75 375.269 280.356C376.135 278.963 376.568 277.026 376.568 274.548H376.41C376.041 275.211 375.562 275.783 374.975 276.266C374.387 276.74 373.72 277.106 372.975 277.362C372.236 277.618 371.453 277.746 370.624 277.746C369.268 277.746 368.048 277.422 366.963 276.774C365.886 276.126 365.031 275.237 364.398 274.107C363.772 272.977 363.456 271.685 363.448 270.231C363.448 268.725 363.795 267.372 364.488 266.174C365.189 264.969 366.164 264.02 367.415 263.327C368.665 262.626 370.127 262.283 371.799 262.298ZM371.811 265.689C370.997 265.689 370.263 265.888 369.607 266.287C368.959 266.679 368.447 267.214 368.07 267.892C367.701 268.563 367.517 269.312 367.517 270.141C367.524 270.962 367.709 271.708 368.07 272.378C368.439 273.049 368.94 273.58 369.573 273.972C370.214 274.363 370.944 274.559 371.765 274.559C372.376 274.559 372.944 274.442 373.472 274.209C373.999 273.975 374.459 273.651 374.85 273.237C375.25 272.815 375.559 272.337 375.777 271.802C376.003 271.267 376.112 270.702 376.105 270.107C376.105 269.316 375.916 268.585 375.54 267.915C375.171 267.244 374.662 266.706 374.014 266.299C373.374 265.892 372.639 265.689 371.811 265.689ZM382.49 285.758V282.729L390.524 274.853C391.293 274.077 391.933 273.388 392.445 272.785C392.958 272.182 393.342 271.599 393.598 271.034C393.854 270.469 393.982 269.866 393.982 269.226C393.982 268.495 393.817 267.869 393.485 267.35C393.154 266.822 392.698 266.416 392.118 266.129C391.538 265.843 390.878 265.7 390.14 265.7C389.379 265.7 388.713 265.858 388.14 266.174C387.567 266.483 387.123 266.924 386.807 267.497C386.498 268.069 386.343 268.751 386.343 269.542H382.354C382.354 268.073 382.69 266.796 383.36 265.711C384.031 264.626 384.953 263.786 386.129 263.191C387.311 262.596 388.667 262.298 390.197 262.298C391.749 262.298 393.112 262.588 394.287 263.169C395.463 263.749 396.374 264.543 397.022 265.553C397.677 266.562 398.005 267.715 398.005 269.011C398.005 269.877 397.839 270.728 397.508 271.565C397.176 272.401 396.593 273.328 395.756 274.345C394.928 275.362 393.764 276.593 392.265 278.04L388.276 282.097V282.255H398.355V285.758H382.49ZM408.899 286.199C407.038 286.199 405.441 285.728 404.108 284.786C402.782 283.837 401.761 282.469 401.045 280.684C400.337 278.891 399.983 276.733 399.983 274.209C399.991 271.685 400.349 269.538 401.057 267.768C401.772 265.99 402.793 264.634 404.119 263.7C405.453 262.766 407.046 262.298 408.899 262.298C410.752 262.298 412.346 262.766 413.679 263.7C415.013 264.634 416.033 265.99 416.741 267.768C417.457 269.546 417.815 271.693 417.815 274.209C417.815 276.74 417.457 278.902 416.741 280.695C416.033 282.481 415.013 283.844 413.679 284.786C412.353 285.728 410.76 286.199 408.899 286.199ZM408.899 282.662C410.346 282.662 411.487 281.95 412.323 280.526C413.167 279.094 413.589 276.989 413.589 274.209C413.589 272.371 413.397 270.826 413.012 269.576C412.628 268.325 412.086 267.384 411.385 266.751C410.685 266.11 409.856 265.79 408.899 265.79C407.46 265.79 406.323 266.506 405.486 267.937C404.65 269.361 404.228 271.452 404.221 274.209C404.213 276.055 404.398 277.607 404.774 278.865C405.159 280.123 405.701 281.072 406.402 281.712C407.102 282.345 407.935 282.662 408.899 282.662Z" fill="#131D27"/>
<path d="M422.153 352.688L349.486 301.388C343.766 297.349 336.049 302.258 337.271 309.157L352.828 396.982C354.05 403.882 362.988 405.867 366.975 400.125L384.218 375.296C385.408 373.583 387.23 372.418 389.282 372.058L419.022 366.837C425.885 365.633 427.858 356.715 422.153 352.688Z" fill="#131D27" stroke="#131D27" stroke-width="18"/>
<rect x="2.6518" y="222.936" width="451.696" height="206.696" rx="18.5626" stroke="#131D27" stroke-width="5.30359"/>
<g clip-path="url(#clip5_53_499)">
<rect y="440.568" width="457" height="212" rx="21.2144" fill="#131D27"/>
<g clip-path="url(#clip6_53_499)">
<rect x="-182.527" y="445.872" width="201.537" height="201.537" rx="5.30359" fill="#FCFCFC"/>
<circle cx="23.8662" cy="23.8662" r="23.8662" transform="matrix(1 0 0 -1 -44.6367 509.516)" fill="#F3F36E"/>
<circle cx="23.8662" cy="23.8662" r="23.8662" transform="matrix(1 0 0 -1 -44.6367 570.507)" fill="#F3F36E"/>
<circle cx="23.8662" cy="23.8662" r="23.8662" transform="matrix(1 0 0 -1 -44.6367 631.498)" fill="#F3F36E"/>
</g>
<g clip-path="url(#clip7_53_499)">
<rect x="24.3125" y="445.872" width="201.537" height="201.537" rx="5.30359" fill="#FCFCFC"/>
<path d="M72.6195 636.534C49.5775 636.534 29.1094 630.689 11.2151 619.001C-6.55668 607.19 -20.529 590.335 -30.7017 568.435C-40.8745 546.535 -45.9609 520.328 -45.9609 489.816C-45.9609 459.427 -40.8745 433.344 -30.7017 411.567C-20.4064 389.667 -6.31155 372.934 11.5828 361.369C29.5996 349.681 50.1291 343.837 73.1711 343.837C90.9428 343.837 105.16 346.79 115.823 352.695C126.609 358.601 134.943 365.429 140.826 373.18C146.709 380.932 151.244 387.637 154.431 393.296H159.204V347.754H209.768V631.497H159.211V587.074H154.431C151.244 592.857 146.587 599.624 140.459 607.375C134.33 615.126 125.873 621.954 115.088 627.86C104.302 633.642 90.1461 636.534 72.6195 636.534ZM83.2826 591.688C99.461 591.688 113.127 587.382 124.28 578.769C135.556 570.157 144.135 558.161 150.019 542.782C155.902 527.403 158.843 509.563 158.843 489.262C158.843 469.085 155.963 451.491 150.202 436.481C144.442 421.348 135.924 409.598 124.648 401.232C113.495 392.866 99.7061 388.683 83.2826 388.683C66.1236 388.683 51.845 393.112 40.4465 401.97C29.1707 410.706 20.6525 422.701 14.892 437.958C9.25405 453.091 6.43508 470.192 6.43508 489.262C6.43508 508.579 9.31533 525.988 15.0758 541.49C20.8363 556.992 29.4158 569.234 40.8142 578.216C52.2126 587.197 66.3688 591.688 83.2826 591.688Z" fill="#F3F36E"/>
</g>
<g clip-path="url(#clip8_53_499)">
<rect x="231.152" y="445.872" width="201.537" height="201.537" rx="5.30359" fill="#FCFCFC"/>
<path d="M362.416 631.498V400.792M318.272 622.717L406.56 409.572M406.559 622.717L318.272 409.572M468.988 560.289L255.843 472.001M468.988 472.001L255.843 560.289M477.769 516.145L247.062 516.145M443.983 597.712L280.849 434.578M443.983 434.578L280.849 597.712" stroke="#F3F36E" stroke-width="13.259"/>
</g>
<g clip-path="url(#clip9_53_499)">
<rect x="437.992" y="445.872" width="201.537" height="201.537" rx="5.30359" fill="#FCFCFC"/>
<path d="M564.53 636.534C541.488 636.534 521.02 630.689 503.125 619.001C485.353 607.19 471.381 590.335 461.208 568.435C451.036 546.535 445.949 520.328 445.949 489.816C445.949 459.427 451.036 433.344 461.208 411.567C471.504 389.667 485.599 372.934 503.493 361.369C521.51 349.681 542.039 343.837 565.081 343.837C582.853 343.837 597.07 346.79 607.733 352.695C618.519 358.601 626.853 365.429 632.736 373.18C638.619 380.932 643.154 387.637 646.341 393.296H651.114V347.754H701.679V631.497H651.121V587.074H646.341C643.154 592.857 638.497 599.624 632.369 607.375C626.241 615.126 617.784 621.954 606.998 627.86C596.212 633.642 582.056 636.534 564.53 636.534ZM575.193 591.688C591.371 591.688 605.037 587.382 616.19 578.769C627.466 570.157 636.046 558.161 641.929 542.782C647.812 527.403 650.753 509.563 650.753 489.262C650.753 469.085 647.873 451.491 642.113 436.481C636.352 421.348 627.834 409.598 616.558 401.232C605.405 392.866 591.616 388.683 575.193 388.683C558.034 388.683 543.755 393.112 532.357 401.97C521.081 410.706 512.563 422.701 506.802 437.958C501.164 453.091 498.345 470.192 498.345 489.262C498.345 508.579 501.225 525.988 506.986 541.49C512.746 556.992 521.326 569.234 532.724 578.216C544.123 587.197 558.279 591.688 575.193 591.688Z" fill="#F3F36E"/>
</g>
</g>
<rect x="2.6518" y="443.22" width="451.696" height="206.696" rx="18.5626" stroke="#131D27" stroke-width="5.30359"/>
<defs>
<clipPath id="clip0_53_499">
<rect width="457" height="212" rx="21.2144" fill="white"/>
</clipPath>
<clipPath id="clip1_53_499">
<rect x="-113.582" y="5.30371" width="132.59" height="201.393" rx="5.30359" fill="white"/>
</clipPath>
<clipPath id="clip2_53_499">
<rect x="162.203" y="5.30371" width="132.59" height="201.393" rx="5.30359" fill="white"/>
</clipPath>
<clipPath id="clip3_53_499">
<rect x="300.098" y="5.30371" width="132.59" height="201.393" rx="5.30359" fill="white"/>
</clipPath>
<clipPath id="clip4_53_499">
<rect x="437.992" y="5.30371" width="132.59" height="201.393" rx="5.30359" fill="white"/>
</clipPath>
<clipPath id="clip5_53_499">
<rect y="440.568" width="457" height="212" rx="21.2144" fill="white"/>
</clipPath>
<clipPath id="clip6_53_499">
<rect x="-182.527" y="445.872" width="201.537" height="201.537" rx="5.30359" fill="white"/>
</clipPath>
<clipPath id="clip7_53_499">
<rect x="24.3125" y="445.872" width="201.537" height="201.537" rx="5.30359" fill="white"/>
</clipPath>
<clipPath id="clip8_53_499">
<rect x="231.152" y="445.872" width="201.537" height="201.537" rx="5.30359" fill="white"/>
</clipPath>
<clipPath id="clip9_53_499">
<rect x="437.992" y="445.872" width="201.537" height="201.537" rx="5.30359" fill="white"/>
</clipPath>
</defs>
</svg>
