<svg width="310" height="84" viewBox="0 0 310 84" fill="none" xmlns="http://www.w3.org/2000/svg">
<path d="M51.8858 2H63.8922L45.5778 34.4609C45.4612 34.6676 45.3999 34.9009 45.3999 35.1382C45.3999 35.8993 46.0169 36.5164 46.7779 36.5164C47.0152 36.5164 47.2484 36.4552 47.4551 36.3386L79.916 18.0241V30.0305L58.0817 41.5913V42.0864L79.916 53.6472V65.6535L47.4551 47.3391C47.2484 47.2225 47.0152 47.1612 46.7779 47.1612C46.0169 47.1612 45.3999 47.7793 45.3999 48.5404C45.3999 48.7779 45.4612 49.0116 45.5779 49.2185L63.8914 81.6777H51.8851L40.3243 59.8435H39.8292L28.2684 81.6777H16.262L34.5764 49.2168C34.693 49.0102 34.7543 48.7768 34.7543 48.5395C34.7543 47.7785 34.1374 47.1613 33.3764 47.1613C33.1391 47.1613 32.9059 47.2225 32.6992 47.3391L0.238281 65.6535L0.238283 53.6472L22.0726 42.0864V41.5913L0.238286 30.0305L0.238287 18.0241L32.6992 36.3386C32.9059 36.4552 33.1391 36.5164 33.3764 36.5164C34.1374 36.5164 34.7543 35.8984 34.7543 35.1373C34.7543 34.8999 34.693 34.6661 34.5763 34.4593L16.2628 2H28.2692L39.83 23.8343H40.3251L51.8858 2Z" fill="#131D27"/>
<path d="M116.528 83.0926C110.033 83.0926 104.263 81.4515 99.2187 78.1694C94.2091 74.8526 90.2705 70.1194 87.4029 63.9697C84.5353 57.82 83.1016 50.461 83.1016 41.8928C83.1016 33.3592 84.5353 26.0348 87.4029 19.9196C90.305 13.7699 94.2782 9.07124 99.3223 5.82363C104.401 2.54147 110.188 0.900391 116.683 0.900391C121.693 0.900391 125.701 1.72957 128.706 3.38792C131.747 5.04627 134.096 6.96375 135.754 9.14034C137.413 11.3169 138.691 13.1999 139.589 14.7891H140.935V2.00048H155.188V81.6782H140.937V69.2039H139.589C138.691 70.8277 137.378 72.7279 135.651 74.9045C133.923 77.0811 131.539 78.9985 128.499 80.6569C125.459 82.2807 121.468 83.0926 116.528 83.0926ZM119.534 70.4995C124.094 70.4995 127.946 69.2903 131.09 66.8718C134.269 64.4534 136.687 61.0849 138.346 56.7662C140.004 52.4476 140.833 47.438 140.833 41.7374C140.833 36.0713 140.021 31.1308 138.397 26.9158C136.774 22.6663 134.372 19.3669 131.194 17.0175C128.05 14.6682 124.163 13.4935 119.534 13.4935C114.697 13.4935 110.672 14.7373 107.459 17.2248C104.28 19.6778 101.879 23.0463 100.255 27.3304C98.6659 31.58 97.8713 36.3823 97.8713 41.7374C97.8713 47.1616 98.6832 52.0503 100.307 56.4035C101.931 60.7566 104.349 64.1943 107.562 66.7163C110.775 69.2384 114.766 70.4995 119.534 70.4995Z" fill="#131D27"/>
<path d="M159.219 81.6777V2L173.653 2V69.5782L208.745 69.5782V81.6777L159.219 81.6777Z" fill="#131D27"/>
<path d="M212.73 81.6777V2L227.164 2V69.5782L262.257 69.5782V81.6777L212.73 81.6777Z" fill="#131D27"/>
<path d="M237.289 2.00586L253.589 2.00586L273.079 37.2515H273.857L293.347 2.00586L309.648 2.00586L280.665 51.9566V81.678H266.271V51.9566L237.289 2.00586Z" fill="#131D27"/>
</svg>
