<svg width="2751" height="880" viewBox="0 0 2751 880" fill="none" xmlns="http://www.w3.org/2000/svg">
<path d="M2.40604e-05 880L6.27041e-05 -1.92751e-05C244.662 -8.62975e-06 443 196.995 443 440C443 683.005 244.662 880 2.40604e-05 880Z" fill="#F3F36E"/>
<path d="M330 880L330 -1.92751e-05C574.662 -8.62975e-06 773 196.995 773 440C773 683.005 574.662 880 330 880Z" fill="#F3F36E"/>
<path d="M660 880L660 -1.92751e-05C904.11 -8.62975e-06 1102 196.995 1102 440C1102 683.005 904.11 880 660 880Z" fill="#F3F36E"/>
<path d="M989 880L989 -1.92751e-05C1234.21 -8.62975e-06 1433 196.995 1433 440C1433 683.005 1234.21 880 989 880Z" fill="#F3F36E"/>
<path d="M1320 880L1320 -1.92751e-05C1565.21 -8.62975e-06 1764 196.995 1764 440C1764 683.005 1565.21 880 1320 880Z" fill="#F3F36E"/>
<path d="M1651 880L1651 -1.92751e-05C1895.11 -8.62975e-06 2093 196.995 2093 440C2093 683.005 1895.11 880 1651 880Z" fill="#F3F36E"/>
<path d="M1980 880L1980 -1.92751e-05C2224.66 -8.62975e-06 2423 196.995 2423 440C2423 683.005 2224.66 880 1980 880Z" fill="#F3F36E"/>
<path d="M2310 880L2310 -1.92751e-05C2553.56 -8.62975e-06 2751 196.995 2751 440C2751 683.005 2553.56 880 2310 880Z" fill="#F3F36E"/>
</svg>
