<svg width="321" height="289" viewBox="0 0 321 289" fill="none" xmlns="http://www.w3.org/2000/svg">
<rect x="2.5" y="2.60815" width="316" height="234.482" rx="26.5" fill="#FCFCFC" stroke="#57B9FF" stroke-width="5"/>
<path d="M135.323 63.8706C135.323 81.4058 121.23 95.6208 103.845 95.6208C86.4602 95.6208 72.367 81.4058 72.367 63.8706C72.367 46.3354 86.4602 32.1204 103.845 32.1204C121.23 32.1204 135.323 46.3354 135.323 63.8706Z" fill="#A7DAFF"/>
<path d="M63.9043 126.834L23.71 194.404C17.4157 204.985 24.9722 218.446 37.206 218.446H283.798C296.032 218.446 303.589 204.985 297.294 194.404L211.772 50.633C205.659 40.3564 190.893 40.3564 184.78 50.633L123.272 154.033C119.604 160.199 110.744 160.199 107.076 154.033L90.8965 126.834C84.7834 116.557 70.0174 116.557 63.9043 126.834Z" fill="#A7DAFF"/>
<path d="M251.761 244.373L201.983 209.231C198.064 206.465 192.778 209.827 193.615 214.553L204.272 274.715C205.109 279.442 211.231 280.802 213.963 276.868L225.775 259.86C226.59 258.686 227.838 257.888 229.244 257.641L249.616 254.066C254.318 253.24 255.669 247.132 251.761 244.373Z" fill="#131D27" stroke="#131D27" stroke-width="18"/>
</svg>
