<svg width="464" height="657" viewBox="0 0 464 657" fill="none" xmlns="http://www.w3.org/2000/svg">
<rect x="2.5" y="3.06836" width="459" height="340" rx="26.5" fill="#FCFCFC" stroke="#57B9FF" stroke-width="5"/>
<path d="M195.243 91.3492C195.243 116.947 174.67 137.698 149.291 137.698C123.913 137.698 103.34 116.947 103.34 91.3492C103.34 65.7512 123.913 45 149.291 45C174.67 45 195.243 65.7512 195.243 91.3492Z" fill="#B2DFFF"/>
<path d="M90.9857 183.263L32.3097 281.902C23.1213 297.349 34.1523 317 52.0114 317H411.989C429.848 317 440.879 297.349 431.69 281.902L306.844 72.0249C297.92 57.023 276.364 57.023 267.44 72.0249L177.65 222.969C172.296 231.97 159.363 231.97 154.008 222.969L130.389 183.263C121.465 168.261 99.9096 168.261 90.9857 183.263Z" fill="#B2DFFF"/>
<rect x="5" y="387" width="454" height="62" fill="#FCFCFC"/>
<rect x="5" y="457" width="280" height="61" fill="#FCFCFC"/>
<rect x="5" y="526" width="364" height="62" fill="#FCFCFC"/>
<rect x="5" y="596" width="454" height="61" fill="#FCFCFC"/>
<path d="M365.227 354.85L292.56 303.55C286.84 299.511 279.123 304.42 280.345 311.319L295.902 399.144C297.124 406.044 306.062 408.029 310.05 402.287L327.292 377.458C328.482 375.745 330.304 374.58 332.356 374.22L362.096 369C368.96 367.795 370.933 358.877 365.227 354.85Z" fill="#131D27" stroke="#131D27" stroke-width="18"/>
</svg>
