<svg width="81" height="80" viewBox="0 0 81 80" fill="none" xmlns="http://www.w3.org/2000/svg">
<path d="M24.0885 0C11.2252 0 0.761719 10.4732 0.761719 23.3398V56.6732C0.761719 69.5365 11.2349 80 24.1016 80H57.4349C70.2982 80 80.7617 69.5268 80.7617 56.6602V23.3268C80.7617 10.4635 70.2885 0 57.4219 0H24.0885ZM64.0951 13.3333C65.9351 13.3333 67.4284 14.8267 67.4284 16.6667C67.4284 18.5067 65.9351 20 64.0951 20C62.2551 20 60.7617 18.5067 60.7617 16.6667C60.7617 14.8267 62.2551 13.3333 64.0951 13.3333ZM40.7617 20C51.7917 20 60.7617 28.97 60.7617 40C60.7617 51.03 51.7917 60 40.7617 60C29.7317 60 20.7617 51.03 20.7617 40C20.7617 28.97 29.7317 20 40.7617 20ZM40.7617 26.6667C37.2255 26.6667 33.8341 28.0714 31.3336 30.5719C28.8331 33.0724 27.4284 36.4638 27.4284 40C27.4284 43.5362 28.8331 46.9276 31.3336 49.4281C33.8341 51.9286 37.2255 53.3333 40.7617 53.3333C44.2979 53.3333 47.6893 51.9286 50.1898 49.4281C52.6903 46.9276 54.0951 43.5362 54.0951 40C54.0951 36.4638 52.6903 33.0724 50.1898 30.5719C47.6893 28.0714 44.2979 26.6667 40.7617 26.6667Z" fill="#131D27"/>
</svg>
