<svg width="103" height="80" viewBox="0 0 103 80" fill="none" xmlns="http://www.w3.org/2000/svg">
<g clip-path="url(#clip0_66_448)">
<path d="M51.7793 45.0821C53.6182 45.0821 55.5217 44.1094 57.4897 42.1641L97.3652 2.48024C95.6231 0.826748 92.4776 0 87.9286 0H14.1782C10.2745 0 7.54841 0.761905 5.99985 2.28571L46.069 42.1641C48.0047 44.1094 49.9081 45.0821 51.7793 45.0821ZM1.98325 72.3647L34.5515 39.9757L1.93486 7.58663C1.16058 9.01317 0.773438 11.3475 0.773438 14.5897V65.3617C0.773438 68.6687 1.17671 71.003 1.98325 72.3647ZM15.4364 80H89.1869C93.1228 80 95.8812 79.2381 97.462 77.7143L64.2162 44.6444L61.2643 47.6109C58.1671 50.5613 55.0055 52.0365 51.7793 52.0365C48.5209 52.0365 45.3431 50.5613 42.246 47.6109L39.294 44.6444L6.14502 77.6656C7.95168 79.2219 11.0488 80 15.4364 80ZM101.527 72.3161C102.237 70.9544 102.592 68.6363 102.592 65.3617V14.5897C102.592 11.3799 102.221 9.09422 101.479 7.73252L69.0071 39.9757L101.527 72.3161Z" fill="#131D27"/>
</g>
<defs>
<clipPath id="clip0_66_448">
<rect x="0.773438" width="101.818" height="80" rx="20" fill="white"/>
</clipPath>
</defs>
</svg>
