<svg width="118" height="80" viewBox="0 0 118 80" fill="none" xmlns="http://www.w3.org/2000/svg">
<path fill-rule="evenodd" clip-rule="evenodd" d="M6.44771 5.85786C0.589844 11.7157 0.589844 21.1438 0.589844 40C0.589844 58.8562 0.589844 68.2843 6.44771 74.1421C12.3056 80 21.7337 80 40.5899 80H77.7616C96.6177 80 106.046 80 111.904 74.1421C117.762 68.2843 117.762 58.8562 117.762 40C117.762 21.1438 117.762 11.7157 111.904 5.85786C106.046 0 96.6177 0 77.7615 0H40.5898C21.7337 0 12.3056 0 6.44771 5.85786ZM50.4589 57.7656L76.6234 42.6719C78.6797 41.4857 78.6797 38.5143 76.6234 37.3281L50.4589 22.2344C48.406 21.0502 45.8424 22.5339 45.8424 24.9064V55.0936C45.8424 57.4661 48.406 58.9498 50.4589 57.7656Z" fill="#131D27"/>
</svg>
