<svg width="753" height="164" viewBox="0 0 753 164" fill="none" xmlns="http://www.w3.org/2000/svg">
<rect x="10" width="245" height="52" rx="26" fill="#F858B6"/>
<rect x="259" width="245" height="52" rx="26" fill="white"/>
<path d="M275.782 42.4602V34.3469H277.246C277.752 33.9066 278.225 33.2828 278.666 32.4755C279.106 31.6682 279.48 30.582 279.789 29.217C280.104 27.8446 280.317 26.0942 280.427 23.9659L280.934 14.4545H294.573V34.3469H297.149V42.4162H294.221V37H278.71V42.4602H275.782ZM280.879 34.3469H291.645V17.1296H283.708L283.355 23.9659C283.267 25.5878 283.113 27.052 282.893 28.3583C282.673 29.6573 282.394 30.8059 282.056 31.804C281.719 32.7947 281.326 33.6424 280.879 34.3469ZM299.542 43.3409V20.0909H302.404V22.799H302.701C302.892 22.4834 303.164 22.0945 303.516 21.6321C303.868 21.1697 304.364 20.7624 305.002 20.4102C305.641 20.0505 306.499 19.8707 307.578 19.8707C308.965 19.8707 310.198 20.223 311.277 20.9276C312.356 21.6248 313.2 22.6265 313.809 23.9329C314.425 25.2319 314.734 26.7841 314.734 28.5895C314.734 30.3949 314.429 31.9508 313.82 33.2571C313.211 34.5634 312.371 35.5726 311.299 36.2844C310.228 36.989 308.998 37.3413 307.611 37.3413C306.554 37.3413 305.699 37.1651 305.046 36.8129C304.4 36.4606 303.894 36.0533 303.527 35.5909C303.167 35.1212 302.892 34.7176 302.701 34.38H302.492V43.3409H299.542ZM302.437 28.5455C302.437 29.7784 302.617 30.8646 302.977 31.804C303.336 32.736 303.857 33.4663 304.54 33.9947C305.23 34.5157 306.074 34.7763 307.072 34.7763C308.099 34.7763 308.962 34.5011 309.659 33.9506C310.356 33.4002 310.881 32.6553 311.233 31.7159C311.593 30.7692 311.772 29.7124 311.772 28.5455C311.772 27.3932 311.596 26.3584 311.244 25.4411C310.899 24.5163 310.378 23.7861 309.681 23.2504C308.984 22.7073 308.114 22.4357 307.072 22.4357C306.059 22.4357 305.208 22.6926 304.518 23.2063C303.835 23.7127 303.318 24.4246 302.966 25.342C302.613 26.2594 302.437 27.3272 302.437 28.5455ZM318.591 43.3409C318.121 43.3409 317.699 43.3042 317.325 43.2308C316.95 43.1574 316.683 43.0804 316.521 42.9996L317.248 40.5117C317.864 40.6732 318.411 40.7356 318.888 40.6989C319.365 40.6695 319.787 40.475 320.154 40.1154C320.528 39.7558 320.862 39.176 321.156 38.3761L321.607 37.1541L315.387 20.0909H318.558L323.027 33.3892H323.203L327.684 20.0909H330.865L323.787 39.3558C323.464 40.2365 323.056 40.9741 322.565 41.5685C322.08 42.163 321.508 42.607 320.847 42.9006C320.187 43.1941 319.435 43.3409 318.591 43.3409ZM331.819 37L338.523 28.3803L331.896 20.0909H335.352L340.78 27.2134H342.079V20.0909H345.029V27.2134H346.284L351.711 20.0909H355.168L348.574 28.3803L355.245 37H351.733L346.24 29.8445H345.029V37H342.079V29.8445H340.868L335.33 37H331.819ZM364.023 37.3523C362.371 37.3523 360.951 36.9927 359.762 36.2734C358.573 35.5469 357.656 34.5341 357.01 33.2351C356.372 31.9287 356.052 30.4059 356.052 28.6665C356.052 26.9345 356.372 25.408 357.01 24.087C357.656 22.7586 358.555 21.7238 359.707 20.9826C360.867 20.2414 362.221 19.8707 363.769 19.8707C364.687 19.8707 365.582 20.0249 366.455 20.3331C367.336 20.634 368.129 21.1184 368.833 21.7862C369.545 22.4467 370.107 23.3164 370.518 24.3952C370.936 25.4741 371.145 26.7914 371.145 28.3473V29.4812H357.902V27.1254H368.206C368.206 26.2153 368.022 25.408 367.655 24.7035C367.296 23.9916 366.782 23.4302 366.114 23.0192C365.454 22.6082 364.676 22.4027 363.78 22.4027C362.797 22.4027 361.946 22.6412 361.226 23.1183C360.514 23.5953 359.964 24.2191 359.575 24.9897C359.186 25.7603 358.992 26.5896 358.992 27.4776V29.1839C358.992 30.3875 359.201 31.4113 359.619 32.2553C360.045 33.092 360.636 33.7305 361.391 34.1708C362.147 34.6038 363.028 34.8203 364.034 34.8203C364.687 34.8203 365.281 34.7286 365.817 34.5451C366.353 34.3543 366.811 34.0717 367.193 33.6974C367.582 33.3232 367.883 32.8535 368.096 32.2884L370.914 32.9268C370.657 33.8075 370.209 34.5818 369.571 35.2496C368.94 35.9102 368.151 36.4276 367.204 36.8018C366.265 37.1688 365.204 37.3523 364.023 37.3523ZM372.308 37V34.358H372.913C373.397 34.358 373.805 34.2589 374.135 34.0607C374.465 33.8626 374.733 33.514 374.939 33.0149C375.144 32.5159 375.302 31.826 375.412 30.9453C375.529 30.0573 375.614 28.9344 375.665 27.5767L375.962 20.0909H387.499V37H384.593V22.7219H378.726L378.461 28.6115C378.403 30.0059 378.271 31.2279 378.065 32.2773C377.867 33.3195 377.57 34.1928 377.173 34.8974C376.777 35.5946 376.26 36.1193 375.621 36.4716C374.99 36.8239 374.208 37 373.276 37H372.308ZM399.134 27.3675V30.0096H390.162V27.3675H399.134ZM392.595 20.0909V37H389.656V20.0909H392.595ZM404.308 37.3523C402.759 37.3523 401.405 36.989 400.246 36.2624C399.086 35.5285 398.183 34.5084 397.538 33.2021C396.892 31.8884 396.569 30.3619 396.569 28.6225C396.569 26.8685 396.892 25.3346 397.538 24.021C398.183 22.7073 399.086 21.6871 400.246 20.9606C401.405 20.234 402.759 19.8707 404.308 19.8707C405.864 19.8707 407.221 20.234 408.381 20.9606C409.541 21.6871 410.44 22.7073 411.078 24.021C411.724 25.3346 412.047 26.8685 412.047 28.6225C412.047 30.3619 411.724 31.8884 411.078 33.2021C410.44 34.5084 409.541 35.5285 408.381 36.2624C407.221 36.989 405.864 37.3523 404.308 37.3523ZM404.308 34.7763C405.423 34.7763 406.337 34.4937 407.049 33.9286C407.761 33.3562 408.286 32.6039 408.623 31.6719C408.968 30.7398 409.141 29.7234 409.141 28.6225C409.141 27.5217 408.968 26.5015 408.623 25.5621C408.286 24.6228 407.761 23.8668 407.049 23.2944C406.337 22.7219 405.423 22.4357 404.308 22.4357C403.2 22.4357 402.286 22.7219 401.567 23.2944C400.855 23.8668 400.326 24.6228 399.982 25.5621C399.644 26.4942 399.475 27.5143 399.475 28.6225C399.475 29.7234 399.644 30.7398 399.982 31.6719C400.326 32.6039 400.855 33.3562 401.567 33.9286C402.286 34.4937 403.2 34.7763 404.308 34.7763ZM427.664 13.772L429.007 15.5994C428.5 16.0838 427.917 16.4251 427.256 16.6232C426.596 16.8214 425.844 16.9425 425 16.9865C424.156 17.0305 423.205 17.0746 422.148 17.1186C420.952 17.1553 419.961 17.4268 419.176 17.9332C418.398 18.4396 417.8 19.1809 417.382 20.157C416.963 21.133 416.696 22.344 416.578 23.7898H416.787C417.345 22.733 418.123 21.9513 419.121 21.445C420.119 20.9312 421.216 20.6744 422.413 20.6744C423.748 20.6744 424.948 20.9863 426.012 21.6101C427.077 22.2266 427.913 23.1403 428.522 24.3512C429.139 25.5548 429.447 27.0336 429.447 28.7876C429.447 30.549 429.128 32.0719 428.489 33.3562C427.858 34.6332 426.97 35.6203 425.825 36.3175C424.68 37.0073 423.337 37.3523 421.796 37.3523C420.248 37.3523 418.897 36.9927 417.745 36.2734C416.593 35.5542 415.697 34.4901 415.059 33.081C414.42 31.6719 414.101 29.9289 414.101 27.8519V26.1126C414.101 22.2963 414.765 19.4157 416.094 17.4709C417.429 15.5187 419.426 14.5133 422.082 14.4545C422.978 14.4252 423.778 14.4178 424.482 14.4325C425.194 14.4472 425.811 14.4142 426.332 14.3335C426.86 14.2527 427.304 14.0656 427.664 13.772ZM421.796 34.7983C422.765 34.7983 423.598 34.5524 424.295 34.0607C425 33.569 425.539 32.8755 425.913 31.9801C426.295 31.0848 426.486 30.0279 426.486 28.8097C426.486 27.6207 426.295 26.6116 425.913 25.7823C425.532 24.9457 424.989 24.3108 424.284 23.8778C423.58 23.4375 422.736 23.2173 421.752 23.2173C421.033 23.2173 420.387 23.3421 419.815 23.5916C419.242 23.8338 418.75 24.1971 418.339 24.6815C417.936 25.1585 417.624 25.7456 417.404 26.4428C417.184 27.1327 417.07 27.9216 417.062 28.8097C417.062 30.6297 417.484 32.0829 418.328 33.169C419.172 34.2552 420.328 34.7983 421.796 34.7983ZM443.421 27.2464V29.8775H434.174V27.2464H443.421ZM434.944 20.0909V37H432.027V20.0909H434.944ZM445.567 20.0909V37H442.661V20.0909H445.567ZM451.257 26.0575H456.134C458.16 26.0575 459.712 26.5676 460.791 27.5877C461.877 28.6005 462.42 29.8958 462.42 31.4737C462.42 32.5159 462.178 33.4553 461.693 34.2919C461.209 35.1212 460.497 35.7817 459.558 36.2734C458.626 36.7578 457.484 37 456.134 37H448.891V20.0909H451.808V34.369H456.134C457.125 34.369 457.936 34.1084 458.567 33.5874C459.198 33.0663 459.517 32.4021 459.525 31.5948C459.517 30.7362 459.198 30.0389 458.567 29.5032C457.936 28.9601 457.125 28.6886 456.134 28.6886H451.257V26.0575ZM464.963 37V20.0909H467.913V37H464.963ZM474.181 32.7727L481.986 20.0909H485.245V37H482.338V24.3072L474.577 37H471.264V20.0909H474.181V32.7727ZM480.412 14.4105H482.977C482.977 15.6214 482.551 16.6122 481.7 17.3828C480.856 18.1461 479.707 18.5277 478.254 18.5277C476.816 18.5277 475.675 18.1461 474.831 17.3828C473.987 16.6122 473.565 15.6214 473.565 14.4105H476.13C476.13 14.9683 476.287 15.4637 476.603 15.8967C476.926 16.3223 477.476 16.5352 478.254 16.5352C479.025 16.5352 479.575 16.3223 479.905 15.8967C480.243 15.471 480.412 14.9756 480.412 14.4105Z" fill="#F858B6"/>
<rect x="508" width="245" height="52" rx="26" fill="#F858B6"/>
<rect y="56" width="189" height="52" rx="26" fill="#F858B6"/>
<rect x="193" y="56" width="118" height="52" rx="26" fill="white"/>
<path d="M210.431 73.1296V70.4545H227.604V73.1296H220.548V93H217.488V73.1296H210.431ZM231.252 88.7727L239.057 76.0909H242.316V93H239.41V80.3072L231.648 93H228.335V76.0909H231.252V88.7727ZM247.92 76.0909L251.817 82.8391L255.725 76.0909H259.017L253.656 84.5455L259.039 93H255.747L251.817 86.56L247.898 93H244.596L249.902 84.5455L244.618 76.0909H247.92ZM264.253 88.7727L272.058 76.0909H275.316V93H272.41V80.3072L264.649 93H261.335V76.0909H264.253V88.7727ZM281.57 88.7727L289.375 76.0909H292.634V93H289.728V80.3072L281.967 93H278.653V76.0909H281.57V88.7727ZM287.801 70.4105H290.366C290.366 71.6214 289.94 72.6122 289.089 73.3828C288.245 74.1461 287.097 74.5277 285.643 74.5277C284.205 74.5277 283.064 74.1461 282.22 73.3828C281.376 72.6122 280.954 71.6214 280.954 70.4105H283.519C283.519 70.9683 283.677 71.4637 283.992 71.8967C284.315 72.3223 284.865 72.5352 285.643 72.5352C286.414 72.5352 286.964 72.3223 287.295 71.8967C287.632 71.471 287.801 70.9756 287.801 70.4105Z" fill="#F858B6"/>
<rect x="315" y="56" width="156" height="52" rx="26" fill="white"/>
<path d="M347.436 70.4545V73.1296H336.669V93H333.598V70.4545H347.436ZM348.155 99.3409V76.0909H351.017V78.799H351.315C351.506 78.4834 351.777 78.0945 352.129 77.6321C352.482 77.1697 352.977 76.7624 353.615 76.4102C354.254 76.0505 355.113 75.8707 356.191 75.8707C357.579 75.8707 358.811 76.223 359.89 76.9276C360.969 77.6248 361.813 78.6265 362.422 79.9329C363.039 81.2319 363.347 82.7841 363.347 84.5895C363.347 86.3949 363.042 87.9508 362.433 89.2571C361.824 90.5634 360.984 91.5726 359.912 92.2844C358.841 92.989 357.612 93.3413 356.224 93.3413C355.168 93.3413 354.313 93.1651 353.66 92.8129C353.014 92.4606 352.507 92.0533 352.14 91.5909C351.781 91.1212 351.506 90.7176 351.315 90.38H351.106V99.3409H348.155ZM351.05 84.5455C351.05 85.7784 351.23 86.8646 351.59 87.804C351.95 88.736 352.471 89.4663 353.153 89.9947C353.843 90.5157 354.687 90.7763 355.685 90.7763C356.713 90.7763 357.575 90.5011 358.272 89.9506C358.969 89.4002 359.494 88.6553 359.846 87.7159C360.206 86.7692 360.386 85.7124 360.386 84.5455C360.386 83.3932 360.21 82.3584 359.857 81.4411C359.512 80.5163 358.991 79.7861 358.294 79.2504C357.597 78.7073 356.727 78.4357 355.685 78.4357C354.672 78.4357 353.821 78.6926 353.131 79.2063C352.449 79.7127 351.931 80.4246 351.579 81.342C351.227 82.2594 351.05 83.3272 351.05 84.5455ZM372.928 93.3523C371.373 93.3523 370.011 92.989 368.844 92.2624C367.677 91.5285 366.771 90.5084 366.125 89.2021C365.479 87.8957 365.156 86.3729 365.156 84.6335C365.156 82.8722 365.479 81.3346 366.125 80.021C366.771 78.7073 367.677 77.6871 368.844 76.9606C370.011 76.234 371.373 75.8707 372.928 75.8707C374.484 75.8707 375.846 76.234 377.013 76.9606C378.179 77.6871 379.086 78.7073 379.732 80.021C380.377 81.3346 380.7 82.8722 380.7 84.6335C380.7 86.3729 380.377 87.8957 379.732 89.2021C379.086 90.5084 378.179 91.5285 377.013 92.2624C375.846 92.989 374.484 93.3523 372.928 93.3523ZM372.928 90.7983C374.029 90.7983 374.932 90.5157 375.636 89.9506C376.348 89.3782 376.877 88.6259 377.222 87.6939C377.567 86.7545 377.739 85.7307 377.739 84.6225C377.739 83.5217 377.567 82.5015 377.222 81.5621C376.877 80.6154 376.348 79.8558 375.636 79.2834C374.932 78.7036 374.029 78.4137 372.928 78.4137C371.835 78.4137 370.932 78.7036 370.22 79.2834C369.508 79.8558 368.98 80.6154 368.635 81.5621C368.29 82.5015 368.118 83.5217 368.118 84.6225C368.118 85.7307 368.29 86.7545 368.635 87.6939C368.98 88.6259 369.508 89.3782 370.22 89.9506C370.932 90.5157 371.835 90.7983 372.928 90.7983ZM392.654 89.2021L398.335 76.0909H400.977L393.788 93H391.509L384.453 76.0909H387.062L392.654 89.2021ZM386.192 76.0909V93H383.275V76.0909H386.192ZM399.149 93V76.0909H402.055V93H399.149ZM405.376 93V76.0909H408.326V83.3125H409.977L415.812 76.0909H419.511L412.828 84.2812L419.599 93H415.878L410.561 86.0536H408.326V93H405.376ZM423.946 88.7727L431.751 76.0909H435.009V93H432.103V80.3072L424.342 93H421.028V76.0909H423.946V88.7727ZM441.263 88.7727L449.068 76.0909H452.327V93H449.42V80.3072L441.659 93H438.346V76.0909H441.263V88.7727ZM447.494 70.4105H450.059C450.059 71.6214 449.633 72.6122 448.782 73.3828C447.938 74.1461 446.789 74.5277 445.336 74.5277C443.898 74.5277 442.757 74.1461 441.913 73.3828C441.069 72.6122 440.647 71.6214 440.647 70.4105H443.212C443.212 70.9683 443.369 71.4637 443.685 71.8967C444.008 72.3223 444.558 72.5352 445.336 72.5352C446.107 72.5352 446.657 72.3223 446.988 71.8967C447.325 71.471 447.494 70.9756 447.494 70.4105Z" fill="#F858B6"/>
<rect x="475" y="56" width="189" height="52" rx="26" fill="#F858B6"/>
<rect x="40" y="112" width="189" height="52" rx="26" fill="#F858B6"/>
<rect x="233" y="112" width="271" height="52" rx="26" fill="white"/>
<path d="M265.766 136.681V139.335H256.398V136.681H265.766ZM250.805 141.9H253.943C254.163 143.433 254.677 144.611 255.484 145.433C256.299 146.248 257.587 146.655 259.348 146.655C260.618 146.655 261.671 146.307 262.507 145.609C263.344 144.912 263.968 143.98 264.379 142.813C264.797 141.646 265.006 140.358 265.006 138.949V136.549C265.006 135.008 264.775 133.661 264.313 132.509C263.85 131.35 263.179 130.451 262.298 129.812C261.425 129.166 260.364 128.843 259.117 128.843C258.009 128.843 257.095 129.038 256.376 129.427C255.664 129.808 255.113 130.359 254.724 131.078C254.335 131.79 254.075 132.652 253.943 133.665H250.805C250.952 132.219 251.352 130.931 252.005 129.801C252.658 128.671 253.576 127.779 254.757 127.126C255.939 126.473 257.392 126.146 259.117 126.146C260.966 126.146 262.563 126.576 263.906 127.434C265.256 128.293 266.298 129.5 267.032 131.056C267.766 132.605 268.133 134.425 268.133 136.516V138.982C268.133 141.074 267.77 142.894 267.043 144.442C266.324 145.984 265.304 147.18 263.983 148.031C262.669 148.883 261.124 149.308 259.348 149.308C257.543 149.308 256.034 148.985 254.824 148.339C253.62 147.686 252.688 146.802 252.027 145.686C251.367 144.564 250.96 143.301 250.805 141.9ZM280.378 145.202L286.059 132.091H288.701L281.512 149H279.233L272.177 132.091H274.786L280.378 145.202ZM273.916 132.091V149H270.999V132.091H273.916ZM286.873 149V132.091H289.78V149H286.873ZM300.101 149.352C298.545 149.352 297.184 148.989 296.017 148.262C294.85 147.529 293.944 146.508 293.298 145.202C292.652 143.896 292.329 142.373 292.329 140.634C292.329 138.872 292.652 137.335 293.298 136.021C293.944 134.707 294.85 133.687 296.017 132.961C297.184 132.234 298.545 131.871 300.101 131.871C301.657 131.871 303.018 132.234 304.185 132.961C305.352 133.687 306.259 134.707 306.904 136.021C307.55 137.335 307.873 138.872 307.873 140.634C307.873 142.373 307.55 143.896 306.904 145.202C306.259 146.508 305.352 147.529 304.185 148.262C303.018 148.989 301.657 149.352 300.101 149.352ZM300.101 146.798C301.202 146.798 302.105 146.516 302.809 145.951C303.521 145.378 304.05 144.626 304.395 143.694C304.739 142.754 304.912 141.731 304.912 140.623C304.912 139.522 304.739 138.502 304.395 137.562C304.05 136.615 303.521 135.856 302.809 135.283C302.105 134.704 301.202 134.414 300.101 134.414C299.008 134.414 298.105 134.704 297.393 135.283C296.681 135.856 296.153 136.615 295.808 137.562C295.463 138.502 295.291 139.522 295.291 140.623C295.291 141.731 295.463 142.754 295.808 143.694C296.153 144.626 296.681 145.378 297.393 145.951C298.105 146.516 299.008 146.798 300.101 146.798ZM323.999 132.091V146.446H326.432V154.46H323.504V149H310.448V132.091H313.365V146.369H321.093V132.091H323.999ZM331.924 144.773L339.729 132.091H342.987V149H340.081V136.307L332.32 149H329.007V132.091H331.924V144.773ZM353.326 149.352C351.77 149.352 350.408 148.989 349.241 148.262C348.075 147.529 347.168 146.508 346.522 145.202C345.876 143.896 345.554 142.373 345.554 140.634C345.554 138.872 345.876 137.335 346.522 136.021C347.168 134.707 348.075 133.687 349.241 132.961C350.408 132.234 351.77 131.871 353.326 131.871C354.881 131.871 356.243 132.234 357.41 132.961C358.577 133.687 359.483 134.707 360.129 136.021C360.775 137.335 361.098 138.872 361.098 140.634C361.098 142.373 360.775 143.896 360.129 145.202C359.483 146.508 358.577 147.529 357.41 148.262C356.243 148.989 354.881 149.352 353.326 149.352ZM353.326 146.798C354.426 146.798 355.329 146.516 356.034 145.951C356.746 145.378 357.274 144.626 357.619 143.694C357.964 142.754 358.136 141.731 358.136 140.623C358.136 139.522 357.964 138.502 357.619 137.562C357.274 136.615 356.746 135.856 356.034 135.283C355.329 134.704 354.426 134.414 353.326 134.414C352.232 134.414 351.329 134.704 350.617 135.283C349.906 135.856 349.377 136.615 349.032 137.562C348.687 138.502 348.515 139.522 348.515 140.623C348.515 141.731 348.687 142.754 349.032 143.694C349.377 144.626 349.906 145.378 350.617 145.951C351.329 146.516 352.232 146.798 353.326 146.798ZM375.066 139.246V141.877H365.819V139.246H375.066ZM366.589 132.091V149H363.672V132.091H366.589ZM377.213 132.091V149H374.306V132.091H377.213ZM386.898 149.341C385.511 149.341 384.282 148.989 383.211 148.284C382.139 147.573 381.299 146.563 380.69 145.257C380.081 143.951 379.776 142.395 379.776 140.589C379.776 138.784 380.081 137.232 380.69 135.933C381.299 134.627 382.143 133.625 383.222 132.928C384.3 132.223 385.537 131.871 386.932 131.871C388.01 131.871 388.869 132.051 389.508 132.41C390.146 132.762 390.641 133.17 390.994 133.632C391.346 134.094 391.617 134.483 391.808 134.799H392.017V132.091H394.957V149H392.095V146.38H391.808C391.61 146.718 391.331 147.121 390.972 147.591C390.612 148.053 390.106 148.461 389.452 148.813C388.807 149.165 387.955 149.341 386.898 149.341ZM387.438 146.776C388.436 146.776 389.276 146.516 389.959 145.995C390.649 145.466 391.173 144.736 391.533 143.804C391.893 142.865 392.072 141.778 392.072 140.545C392.072 139.327 391.896 138.259 391.544 137.342C391.192 136.425 390.671 135.713 389.981 135.206C389.291 134.693 388.443 134.436 387.438 134.436C386.396 134.436 385.526 134.707 384.829 135.25C384.132 135.786 383.607 136.516 383.255 137.441C382.91 138.358 382.737 139.393 382.737 140.545C382.737 141.712 382.913 142.769 383.266 143.716C383.625 144.655 384.15 145.4 384.84 145.951C385.537 146.501 386.403 146.776 387.438 146.776ZM397.201 149V146.358H397.806C398.291 146.358 398.698 146.259 399.028 146.061C399.359 145.863 399.626 145.514 399.832 145.015C400.037 144.516 400.195 143.826 400.305 142.945C400.423 142.057 400.507 140.934 400.559 139.577L400.856 132.091H412.393V149H409.486V134.722H403.619L403.355 140.612C403.296 142.006 403.164 143.228 402.958 144.277C402.76 145.319 402.463 146.193 402.067 146.897C401.67 147.595 401.153 148.119 400.514 148.472C399.883 148.824 399.102 149 398.17 149H397.201ZM418.083 138.058H422.959C424.985 138.058 426.537 138.568 427.616 139.588C428.702 140.6 429.245 141.896 429.245 143.474C429.245 144.516 429.003 145.455 428.519 146.292C428.034 147.121 427.322 147.782 426.383 148.273C425.451 148.758 424.31 149 422.959 149H415.716V132.091H418.633V146.369H422.959C423.95 146.369 424.761 146.108 425.392 145.587C426.023 145.066 426.343 144.402 426.35 143.595C426.343 142.736 426.023 142.039 425.392 141.503C424.761 140.96 423.95 140.689 422.959 140.689H418.083V138.058ZM443.216 139.246V141.877H433.969V139.246H443.216ZM434.74 132.091V149H431.822V132.091H434.74ZM445.363 132.091V149H442.457V132.091H445.363ZM451.053 138.058H455.93C457.955 138.058 459.507 138.568 460.586 139.588C461.672 140.6 462.215 141.896 462.215 143.474C462.215 144.516 461.973 145.455 461.489 146.292C461.004 147.121 460.293 147.782 459.353 148.273C458.421 148.758 457.28 149 455.93 149H448.686V132.091H451.603V146.369H455.93C456.92 146.369 457.731 146.108 458.362 145.587C458.994 145.066 459.313 144.402 459.32 143.595C459.313 142.736 458.994 142.039 458.362 141.503C457.731 140.96 456.92 140.689 455.93 140.689H451.053V138.058ZM464.758 149V132.091H467.709V149H464.758ZM473.976 144.773L481.781 132.091H485.04V149H482.134V136.307L474.373 149H471.059V132.091H473.976V144.773ZM480.207 126.411H482.772C482.772 127.621 482.347 128.612 481.495 129.383C480.651 130.146 479.503 130.528 478.05 130.528C476.611 130.528 475.47 130.146 474.626 129.383C473.782 128.612 473.36 127.621 473.36 126.411H475.925C475.925 126.968 476.083 127.464 476.398 127.897C476.721 128.322 477.272 128.535 478.05 128.535C478.82 128.535 479.371 128.322 479.701 127.897C480.038 127.471 480.207 126.976 480.207 126.411Z" fill="#F858B6"/>
<rect x="508" y="112" width="189" height="52" rx="26" fill="#F858B6"/>
</svg>
