<svg width="457" height="653" viewBox="0 0 457 653" fill="none" xmlns="http://www.w3.org/2000/svg">
<g clip-path="url(#clip0_53_452)">
<rect width="457" height="103" rx="51.5" fill="#F858B6"/>
<rect y="111" width="457" height="98" rx="49" fill="#FCFCFC"/>
<path d="M76.8608 150.832H69.7017C69.3608 149.077 68.7472 147.526 67.8608 146.179C66.9915 144.832 65.9176 143.699 64.6392 142.778C63.3778 141.858 61.9716 141.168 60.4205 140.707C58.8693 140.23 57.25 139.991 55.5625 139.991C52.4602 139.991 49.6733 140.776 47.2017 142.344C44.7301 143.895 42.7699 146.187 41.321 149.222C39.8892 152.239 39.1733 155.937 39.1733 160.318C39.1733 164.716 39.8892 168.432 41.321 171.466C42.7699 174.483 44.7301 176.767 47.2017 178.318C49.6733 179.869 52.4517 180.645 55.5369 180.645C57.2415 180.645 58.8608 180.415 60.3949 179.955C61.946 179.477 63.3523 178.787 64.6136 177.884C65.892 176.963 66.9659 175.838 67.8352 174.509C68.7216 173.162 69.3438 171.619 69.7017 169.881H76.8608C76.4176 172.523 75.5739 174.909 74.3295 177.04C73.0852 179.17 71.517 180.994 69.625 182.511C67.75 184.028 65.6193 185.196 63.233 186.014C60.8466 186.815 58.2727 187.216 55.5114 187.216C51.0114 187.216 47.0057 186.134 43.4943 183.969C39.983 181.787 37.2216 178.693 35.2102 174.688C33.1989 170.665 32.1932 165.875 32.1932 160.318C32.1932 154.761 33.1989 149.972 35.2102 145.949C37.2386 141.926 40.0085 138.832 43.5199 136.668C47.0313 134.503 51.0284 133.42 55.5114 133.42C58.2216 133.42 60.7614 133.812 63.1307 134.597C65.5 135.381 67.6307 136.523 69.5227 138.023C71.4318 139.523 73.017 141.347 74.2784 143.494C75.5398 145.642 76.4006 148.088 76.8608 150.832ZM99.8238 187.318C95.9886 187.318 92.6903 186.483 89.9289 184.812C87.1676 183.125 85.0369 180.773 83.5369 177.756C82.0539 174.722 81.3125 171.185 81.3125 167.145C81.3125 163.122 82.0539 159.577 83.5369 156.509C85.0369 153.423 87.125 151.02 89.8011 149.298C92.4943 147.577 95.6392 146.716 99.2358 146.716C101.366 146.716 103.446 147.074 105.474 147.79C107.52 148.489 109.361 149.614 110.997 151.165C112.651 152.699 113.955 154.719 114.909 157.224C115.881 159.73 116.366 162.79 116.366 166.403V169.037H85.6079V163.565H109.54C109.54 161.452 109.114 159.577 108.261 157.94C107.426 156.287 106.233 154.983 104.682 154.028C103.148 153.074 101.341 152.597 99.2613 152.597C96.9772 152.597 95 153.151 93.3295 154.259C91.6761 155.366 90.3977 156.815 89.4943 158.605C88.5909 160.395 88.1392 162.321 88.1392 164.384V168.347C88.1392 171.142 88.625 173.52 89.5966 175.48C90.5852 177.423 91.9574 178.906 93.713 179.929C95.4687 180.935 97.5142 181.438 99.8494 181.438C101.366 181.438 102.747 181.224 103.991 180.798C105.236 180.355 106.301 179.699 107.187 178.83C108.091 177.96 108.79 176.869 109.284 175.557L115.83 177.04C115.233 179.085 114.193 180.884 112.71 182.435C111.244 183.969 109.412 185.17 107.213 186.04C105.031 186.892 102.568 187.318 99.8238 187.318ZM122.339 201.227V147.227H128.987V153.517H129.677C130.121 152.784 130.751 151.881 131.57 150.807C132.388 149.733 133.538 148.787 135.021 147.969C136.504 147.134 138.499 146.716 141.004 146.716C144.226 146.716 147.089 147.534 149.595 149.17C152.101 150.79 154.061 153.116 155.476 156.151C156.908 159.168 157.624 162.773 157.624 166.966C157.624 171.159 156.916 174.773 155.501 177.807C154.087 180.841 152.135 183.185 149.646 184.838C147.158 186.474 144.302 187.293 141.081 187.293C138.626 187.293 136.641 186.884 135.124 186.065C133.624 185.247 132.447 184.301 131.595 183.227C130.76 182.136 130.121 181.199 129.677 180.415H129.192V201.227H122.339ZM129.064 166.864C129.064 169.727 129.481 172.25 130.317 174.432C131.152 176.597 132.362 178.293 133.947 179.52C135.55 180.73 137.51 181.335 139.828 181.335C142.214 181.335 144.217 180.696 145.837 179.418C147.456 178.139 148.675 176.409 149.493 174.227C150.328 172.028 150.746 169.574 150.746 166.864C150.746 164.187 150.337 161.784 149.518 159.653C148.717 157.506 147.507 155.81 145.888 154.565C144.268 153.304 142.249 152.673 139.828 152.673C137.476 152.673 135.499 153.27 133.896 154.463C132.311 155.639 131.109 157.293 130.291 159.423C129.473 161.554 129.064 164.034 129.064 166.864ZM169.113 161.085H180.44C185.144 161.085 188.749 162.27 191.255 164.639C193.778 166.991 195.039 170 195.039 173.665C195.039 176.085 194.476 178.267 193.351 180.21C192.226 182.136 190.573 183.67 188.391 184.812C186.226 185.938 183.576 186.5 180.44 186.5H163.616V147.227H170.391V180.389H180.44C182.741 180.389 184.624 179.784 186.09 178.574C187.556 177.364 188.298 175.821 188.315 173.946C188.298 171.952 187.556 170.332 186.09 169.088C184.624 167.827 182.741 167.196 180.44 167.196H169.113V161.085ZM217.746 187.318C213.911 187.318 210.613 186.483 207.851 184.812C205.09 183.125 202.959 180.773 201.459 177.756C199.976 174.722 199.235 171.185 199.235 167.145C199.235 163.122 199.976 159.577 201.459 156.509C202.959 153.423 205.047 151.02 207.724 149.298C210.417 147.577 213.562 146.716 217.158 146.716C219.289 146.716 221.368 147.074 223.397 147.79C225.442 148.489 227.283 149.614 228.92 151.165C230.573 152.699 231.877 154.719 232.832 157.224C233.803 159.73 234.289 162.79 234.289 166.403V169.037H203.53V163.565H227.462C227.462 161.452 227.036 159.577 226.184 157.94C225.349 156.287 224.155 154.983 222.604 154.028C221.07 153.074 219.263 152.597 217.184 152.597C214.9 152.597 212.922 153.151 211.252 154.259C209.599 155.366 208.32 156.815 207.417 158.605C206.513 160.395 206.062 162.321 206.062 164.384V168.347C206.062 171.142 206.547 173.52 207.519 175.48C208.508 177.423 209.88 178.906 211.636 179.929C213.391 180.935 215.437 181.438 217.772 181.438C219.289 181.438 220.67 181.224 221.914 180.798C223.158 180.355 224.224 179.699 225.11 178.83C226.013 177.96 226.712 176.869 227.207 175.557L233.752 177.04C233.155 179.085 232.116 180.884 230.633 182.435C229.167 183.969 227.334 185.17 225.136 186.04C222.954 186.892 220.491 187.318 217.746 187.318ZM237.884 176.298H245.018C245.137 177.986 245.904 179.281 247.319 180.185C248.734 181.071 250.574 181.514 252.841 181.514C255.16 181.514 257.137 181.028 258.773 180.057C260.41 179.085 261.228 177.543 261.228 175.429C261.228 174.168 260.913 173.077 260.282 172.156C259.668 171.219 258.799 170.486 257.674 169.957C256.549 169.429 255.228 169.165 253.711 169.165H247.14V163.463H253.711C255.995 163.463 257.691 162.943 258.799 161.903C259.907 160.864 260.461 159.568 260.461 158.017C260.461 156.33 259.864 154.974 258.671 153.952C257.478 152.929 255.799 152.418 253.634 152.418C251.452 152.418 249.628 152.912 248.163 153.901C246.714 154.872 245.947 156.125 245.861 157.659H238.83C238.898 155.511 239.555 153.619 240.799 151.983C242.06 150.33 243.765 149.043 245.913 148.122C248.077 147.185 250.54 146.716 253.302 146.716C256.131 146.716 258.586 147.193 260.665 148.148C262.762 149.102 264.373 150.406 265.498 152.06C266.64 153.696 267.211 155.571 267.211 157.685C267.211 159.866 266.58 161.648 265.319 163.028C264.057 164.392 262.438 165.364 260.461 165.943V166.352C261.978 166.455 263.299 166.923 264.424 167.759C265.566 168.594 266.452 169.685 267.083 171.031C267.731 172.378 268.055 173.886 268.055 175.557C268.055 177.96 267.398 180.04 266.086 181.795C264.79 183.551 263.001 184.915 260.716 185.886C258.449 186.841 255.859 187.318 252.944 187.318C250.097 187.318 247.549 186.866 245.299 185.963C243.066 185.043 241.285 183.756 239.955 182.102C238.643 180.449 237.952 178.514 237.884 176.298ZM299.845 163.847V169.957H278.368V163.847H299.845ZM280.158 147.227V186.5H273.382V147.227H280.158ZM304.831 147.227V186.5H298.081V147.227H304.831ZM318.046 161.085H329.373C334.077 161.085 337.682 162.27 340.188 164.639C342.711 166.991 343.972 170 343.972 173.665C343.972 176.085 343.41 178.267 342.285 180.21C341.16 182.136 339.506 183.67 337.324 184.812C335.16 185.938 332.509 186.5 329.373 186.5H312.549V147.227H319.324V180.389H329.373C331.674 180.389 333.557 179.784 335.023 178.574C336.489 177.364 337.231 175.821 337.248 173.946C337.231 171.952 336.489 170.332 335.023 169.088C333.557 167.827 331.674 167.196 329.373 167.196H318.046V161.085ZM349.878 186.5V147.227H356.731V186.5H349.878ZM371.288 176.682L389.416 147.227H396.984V186.5H390.234V157.02L372.209 186.5H364.513V147.227H371.288V176.682ZM385.76 134.034H391.717C391.717 136.847 390.728 139.148 388.751 140.938C386.791 142.71 384.123 143.597 380.748 143.597C377.407 143.597 374.757 142.71 372.797 140.938C370.836 139.148 369.856 136.847 369.856 134.034H375.814C375.814 135.33 376.18 136.48 376.913 137.486C377.663 138.474 378.942 138.969 380.748 138.969C382.538 138.969 383.817 138.474 384.584 137.486C385.368 136.497 385.76 135.347 385.76 134.034Z" fill="#131D27"/>
<rect y="217" width="224.5" height="103" rx="51.5" fill="#FCFCFC"/>
<rect x="232.5" y="217" width="224.5" height="103" rx="51.5" fill="#F858B6"/>
<rect y="328" width="457" height="103" rx="51.5" fill="#FCFCFC"/>
<path d="M66.1733 353.636V359.849H41.1676V406H34.0341V353.636H66.1733ZM67.8444 420.727V366.727H74.4922V373.017H75.1825C75.6257 372.284 76.2564 371.381 77.0745 370.307C77.8927 369.233 79.0433 368.287 80.5262 367.469C82.0092 366.634 84.0035 366.216 86.5092 366.216C89.7308 366.216 92.5944 367.034 95.1001 368.67C97.6058 370.29 99.566 372.616 100.981 375.651C102.413 378.668 103.129 382.273 103.129 386.466C103.129 390.659 102.421 394.273 101.006 397.307C99.5916 400.341 97.6399 402.685 95.1512 404.338C92.6626 405.974 89.8075 406.793 86.5859 406.793C84.1314 406.793 82.1456 406.384 80.6285 405.565C79.1285 404.747 77.9524 403.801 77.1001 402.727C76.2649 401.636 75.6257 400.699 75.1825 399.915H74.6967V420.727H67.8444ZM74.5689 386.364C74.5689 389.227 74.9865 391.75 75.8217 393.932C76.6569 396.097 77.8672 397.793 79.4524 399.02C81.0547 400.23 83.0149 400.835 85.3331 400.835C87.7194 400.835 89.7223 400.196 91.3416 398.918C92.9609 397.639 94.1797 395.909 94.9978 393.727C95.8331 391.528 96.2507 389.074 96.2507 386.364C96.2507 383.687 95.8416 381.284 95.0234 379.153C94.2223 377.006 93.012 375.31 91.3927 374.065C89.7734 372.804 87.7535 372.173 85.3331 372.173C82.9808 372.173 81.0035 372.77 79.4012 373.963C77.816 375.139 76.6143 376.793 75.7961 378.923C74.978 381.054 74.5689 383.534 74.5689 386.364ZM125.382 406.818C121.768 406.818 118.606 405.974 115.896 404.287C113.186 402.582 111.081 400.213 109.581 397.179C108.081 394.145 107.331 390.608 107.331 386.568C107.331 382.477 108.081 378.906 109.581 375.855C111.081 372.804 113.186 370.435 115.896 368.747C118.606 367.06 121.768 366.216 125.382 366.216C128.996 366.216 132.158 367.06 134.868 368.747C137.578 370.435 139.683 372.804 141.183 375.855C142.683 378.906 143.433 382.477 143.433 386.568C143.433 390.608 142.683 394.145 141.183 397.179C139.683 400.213 137.578 402.582 134.868 404.287C132.158 405.974 128.996 406.818 125.382 406.818ZM125.382 400.886C127.939 400.886 130.035 400.23 131.672 398.918C133.325 397.588 134.552 395.841 135.354 393.676C136.155 391.494 136.555 389.116 136.555 386.543C136.555 383.986 136.155 381.616 135.354 379.435C134.552 377.236 133.325 375.472 131.672 374.142C130.035 372.795 127.939 372.122 125.382 372.122C122.842 372.122 120.746 372.795 119.092 374.142C117.439 375.472 116.212 377.236 115.41 379.435C114.609 381.616 114.209 383.986 114.209 386.543C114.209 389.116 114.609 391.494 115.41 393.676C116.212 395.841 117.439 397.588 119.092 398.918C120.746 400.23 122.842 400.886 125.382 400.886ZM171.197 397.179L184.39 366.727H190.526L173.83 406H168.538L152.148 366.727H158.208L171.197 397.179ZM156.188 366.727V406H149.413V366.727H156.188ZM186.282 406V366.727H193.032V406H186.282ZM200.743 406V366.727H207.596V383.5H211.431L224.982 366.727H233.573L218.053 385.75L233.778 406H225.136L212.786 389.866H207.596V406H200.743ZM243.873 396.182L262.001 366.727H269.569V406H262.819V376.52L244.794 406H237.098V366.727H243.873V396.182ZM284.095 396.182L302.223 366.727H309.791V406H303.041V376.52L285.015 406H277.319V366.727H284.095V396.182ZM298.567 353.534H304.524C304.524 356.347 303.535 358.648 301.558 360.438C299.598 362.21 296.93 363.097 293.555 363.097C290.214 363.097 287.564 362.21 285.604 360.438C283.643 358.648 282.663 356.347 282.663 353.534H288.621C288.621 354.83 288.987 355.98 289.72 356.986C290.47 357.974 291.748 358.469 293.555 358.469C295.345 358.469 296.623 357.974 297.39 356.986C298.175 355.997 298.567 354.847 298.567 353.534Z" fill="#131D27"/>
<rect y="439" width="183" height="103" rx="51.5" fill="#F858B6"/>
<rect x="191" y="439" width="266" height="103" rx="51.5" fill="#FCFCFC"/>
<rect y="550" width="256" height="103" rx="51.5" fill="#FCFCFC"/>
<path d="M31.3239 581.849V575.636H71.2102V581.849H54.821V628H47.7131V581.849H31.3239ZM79.6825 618.182L97.8103 588.727H105.379V628H98.6285V598.52L80.603 628H72.9069V588.727H79.6825V618.182ZM118.396 588.727L127.447 604.401L136.523 588.727H144.168L131.717 608.364L144.219 628H136.575L127.447 613.043L118.344 628H110.674L122.998 608.364L110.725 588.727H118.396ZM156.329 618.182L174.457 588.727H182.025V628H175.275V598.52L157.249 628H149.553V588.727H156.329V618.182ZM196.55 618.182L214.678 588.727H222.246V628H215.496V598.52L197.471 628H189.775V588.727H196.55V618.182ZM211.022 575.534H216.979C216.979 578.347 215.991 580.648 214.013 582.438C212.053 584.21 209.386 585.097 206.011 585.097C202.67 585.097 200.019 584.21 198.059 582.438C196.099 580.648 195.118 578.347 195.118 575.534H201.076C201.076 576.83 201.442 577.98 202.175 578.986C202.925 579.974 204.204 580.469 206.011 580.469C207.8 580.469 209.079 579.974 209.846 578.986C210.63 577.997 211.022 576.847 211.022 575.534Z" fill="#131D27"/>
<rect x="266" y="550" width="191" height="103" rx="51.5" fill="#F858B6"/>
</g>
<defs>
<clipPath id="clip0_53_452">
<rect width="457" height="653" fill="white"/>
</clipPath>
</defs>
</svg>
