<svg width="313" height="296" viewBox="0 0 313 296" fill="none" xmlns="http://www.w3.org/2000/svg">
<g clip-path="url(#clip0_331_989)">
<rect width="311" height="144.271" rx="14.4369" fill="#131D27"/>
<g clip-path="url(#clip1_331_989)">
<rect x="-77.2953" y="3.60913" width="90.2307" height="137.053" rx="3.60923" fill="#FCFCFC"/>
<path d="M-72.3746 7.22827L-47.7108 7.22827L-18.2203 63.1075H-17.043L12.4476 7.22827L37.1113 7.22827L-6.7419 86.4214V133.542H-28.5213V86.4214L-72.3746 7.22827Z" fill="#F3F36E"/>
</g>
<rect x="16.5447" y="3.60913" width="90.2307" height="137.053" rx="3.60923" fill="#FCFCFC"/>
<rect x="23.7631" y="28.8738" width="44.2131" height="7.21846" fill="#131D27"/>
<rect x="23.7631" y="37.897" width="57.7477" height="7.21846" fill="#131D27"/>
<rect x="23.7631" y="46.9199" width="36.0923" height="7.21846" fill="#131D27"/>
<rect x="23.7631" y="110.082" width="28.8738" height="7.21846" fill="#131D27"/>
<rect x="23.7631" y="119.104" width="23.46" height="7.21846" fill="#131D27"/>
<g clip-path="url(#clip2_331_989)">
<rect x="110.385" y="3.60913" width="90.2307" height="137.053" rx="3.60923" fill="#FCFCFC"/>
<path d="M110.385 148.777L200.615 148.777C200.615 123.878 180.417 103.694 155.5 103.694C130.583 103.694 110.385 123.878 110.385 148.777Z" fill="#F3F36E"/>
<path d="M110.385 112.711L200.615 112.711C200.615 87.8119 180.417 67.6274 155.5 67.6274C130.583 67.6274 110.385 87.8119 110.385 112.711Z" fill="#F3F36E"/>
<path d="M110.385 75.7424L200.615 75.7424C200.615 50.8436 180.417 30.6592 155.5 30.6592C130.583 30.6592 110.385 50.8436 110.385 75.7424Z" fill="#F3F36E"/>
<path d="M110.385 39.6757L200.615 39.6757C200.615 14.777 180.417 -5.40747 155.5 -5.40747C130.583 -5.40746 110.385 14.777 110.385 39.6757Z" fill="#F3F36E"/>
<rect x="155.5" y="119.022" width="28.8738" height="7.21331" fill="#131D27"/>
<rect x="117.603" y="119.022" width="15.3392" height="7.21331" fill="#131D27"/>
</g>
<g clip-path="url(#clip3_331_989)">
<rect x="204.225" y="3.60913" width="90.2307" height="137.053" rx="3.60923" fill="#FCFCFC"/>
<path d="M293.553 129.842V-27.0474M263.512 123.87L323.594 -21.0765M323.594 123.87L263.512 -21.0765M366.078 81.4167L221.028 21.3777M366.078 21.3779L221.028 81.4169M372.054 51.3973L215.052 51.3973M349.061 106.866L238.045 -4.07154M349.061 -4.07147L238.045 106.866" stroke="#F3F36E" stroke-width="9.02307"/>
<rect x="211.443" y="10.8225" width="28.8738" height="7.21331" fill="#131D27"/>
<rect x="211.443" y="19.8391" width="21.6554" height="7.21331" fill="#131D27"/>
<rect x="211.443" y="28.8557" width="33.3854" height="7.21331" fill="#131D27"/>
</g>
<g clip-path="url(#clip4_331_989)">
<rect x="298.065" y="3.60913" width="90.2307" height="137.053" rx="3.60923" fill="#FCFCFC"/>
<ellipse cx="78.5007" cy="78.4447" rx="78.5007" ry="78.4447" transform="matrix(1 0 0 -1 227.685 229.025)" fill="#F3F36E"/>
</g>
</g>
<rect x="1.80461" y="1.80461" width="307.391" height="140.662" rx="12.6323" stroke="#131D27" stroke-width="3.60923"/>
<g clip-path="url(#clip5_331_989)">
<rect y="149.909" width="313" height="145.199" rx="14.5298" fill="#131D27"/>
<g clip-path="url(#clip6_331_989)">
<rect x="-125.014" y="153.541" width="138.033" height="138.033" rx="3.63244" fill="#FCFCFC"/>
<circle cx="16.346" cy="16.346" r="16.346" transform="matrix(1 0 0 -1 -30.5706 197.131)" fill="#F3F36E"/>
<circle cx="16.346" cy="16.346" r="16.346" transform="matrix(1 0 0 -1 -30.5706 238.904)" fill="#F3F36E"/>
<circle cx="16.346" cy="16.346" r="16.346" transform="matrix(1 0 0 -1 -30.5706 280.677)" fill="#F3F36E"/>
</g>
<g clip-path="url(#clip7_331_989)">
<rect x="16.6511" y="153.541" width="138.033" height="138.033" rx="3.63244" fill="#FCFCFC"/>
<path d="M49.7371 284.127C33.9556 284.127 19.9369 280.124 7.68105 272.119C-4.49085 264.029 -14.0605 252.485 -21.0278 237.485C-27.9952 222.486 -31.4789 204.538 -31.4789 183.64C-31.4789 162.826 -27.9952 144.962 -21.0278 130.047C-13.9765 115.047 -4.32296 103.587 7.93288 95.6661C20.2727 87.6608 34.3333 83.6582 50.1148 83.6582C62.2867 83.6582 72.0242 85.6806 79.3274 89.7253C86.7144 93.7701 92.4226 98.4468 96.452 103.756C100.481 109.064 103.587 113.657 105.77 117.533H109.039V86.3413H143.671V280.677H109.044V250.252H105.77C103.587 254.212 100.397 258.847 96.2001 264.156C92.0029 269.464 86.2108 274.141 78.8237 278.186C71.4366 282.146 61.7411 284.127 49.7371 284.127ZM57.0402 253.412C68.1208 253.412 77.4806 250.462 85.1195 244.564C92.8424 238.665 98.7184 230.449 102.748 219.916C106.777 209.383 108.792 197.164 108.792 183.26C108.792 169.441 106.819 157.391 102.874 147.11C98.9283 136.746 93.0942 128.698 85.3713 122.968C77.7324 117.238 68.2887 114.373 57.0402 114.373C45.288 114.373 35.5085 117.407 27.7017 123.474C19.9789 129.457 14.1447 137.673 10.1994 148.122C6.33794 158.486 4.40723 170.199 4.40723 183.26C4.40723 196.49 6.37992 208.414 10.3253 219.031C14.2707 229.649 20.1467 238.033 27.9535 244.185C35.7604 250.336 45.4559 253.412 57.0402 253.412Z" fill="#F3F36E"/>
</g>
<g clip-path="url(#clip8_331_989)">
<rect x="158.316" y="153.541" width="138.033" height="138.033" rx="3.63244" fill="#FCFCFC"/>
<path d="M248.219 280.677V122.666M217.985 274.663L278.453 128.679M278.453 274.663L217.985 128.679M321.211 231.905L175.227 171.437M321.211 171.437L175.227 231.905M327.225 201.671L169.214 201.671M304.085 257.537L192.354 145.806M304.085 145.806L192.354 257.537" stroke="#F3F36E" stroke-width="9.0811"/>
</g>
<g clip-path="url(#clip9_331_989)">
<rect x="299.981" y="153.541" width="138.033" height="138.033" rx="3.63244" fill="#FCFCFC"/>
<path d="M386.646 284.127C370.864 284.127 356.846 280.124 344.59 272.119C332.418 264.029 322.848 252.485 315.881 237.485C308.914 222.486 305.43 204.538 305.43 183.64C305.43 162.826 308.914 144.962 315.881 130.047C322.932 115.047 332.586 103.587 344.842 95.6661C357.181 87.6608 371.242 83.6582 387.024 83.6582C399.196 83.6582 408.933 85.6806 416.236 89.7253C423.623 93.7701 429.331 98.4468 433.361 103.756C437.39 109.064 440.496 113.657 442.679 117.533H445.948V86.3413H480.579V280.677H445.952V250.252H442.679C440.496 254.212 437.306 258.847 433.109 264.156C428.912 269.464 423.12 274.141 415.733 278.186C408.345 282.146 398.65 284.127 386.646 284.127ZM393.949 253.412C405.03 253.412 414.389 250.462 422.028 244.564C429.751 238.665 435.627 230.449 439.657 219.916C443.686 209.383 445.701 197.164 445.701 183.26C445.701 169.441 443.728 157.391 439.782 147.11C435.837 136.746 430.003 128.698 422.28 122.968C414.641 117.238 405.198 114.373 393.949 114.373C382.197 114.373 372.417 117.407 364.611 123.474C356.888 129.457 351.054 137.673 347.108 148.122C343.247 158.486 341.316 170.199 341.316 183.26C341.316 196.49 343.289 208.414 347.234 219.031C351.179 229.649 357.056 238.033 364.862 244.185C372.669 250.336 382.365 253.412 393.949 253.412Z" fill="#F3F36E"/>
</g>
</g>
<rect x="1.81622" y="151.725" width="309.368" height="141.567" rx="12.7135" stroke="#131D27" stroke-width="3.63244"/>
<defs>
<clipPath id="clip0_331_989">
<rect width="311" height="144.271" rx="14.4369" fill="white"/>
</clipPath>
<clipPath id="clip1_331_989">
<rect x="-77.2953" y="3.60913" width="90.2307" height="137.053" rx="3.60923" fill="white"/>
</clipPath>
<clipPath id="clip2_331_989">
<rect x="110.385" y="3.60913" width="90.2307" height="137.053" rx="3.60923" fill="white"/>
</clipPath>
<clipPath id="clip3_331_989">
<rect x="204.225" y="3.60913" width="90.2307" height="137.053" rx="3.60923" fill="white"/>
</clipPath>
<clipPath id="clip4_331_989">
<rect x="298.065" y="3.60913" width="90.2307" height="137.053" rx="3.60923" fill="white"/>
</clipPath>
<clipPath id="clip5_331_989">
<rect y="149.909" width="313" height="145.199" rx="14.5298" fill="white"/>
</clipPath>
<clipPath id="clip6_331_989">
<rect x="-125.014" y="153.541" width="138.033" height="138.033" rx="3.63244" fill="white"/>
</clipPath>
<clipPath id="clip7_331_989">
<rect x="16.6511" y="153.541" width="138.033" height="138.033" rx="3.63244" fill="white"/>
</clipPath>
<clipPath id="clip8_331_989">
<rect x="158.316" y="153.541" width="138.033" height="138.033" rx="3.63244" fill="white"/>
</clipPath>
<clipPath id="clip9_331_989">
<rect x="299.981" y="153.541" width="138.033" height="138.033" rx="3.63244" fill="white"/>
</clipPath>
</defs>
</svg>
